# xmcd
#
# Track frame offsets:
# 182
# 19602
# 35270
# 50327
# 70150
# 85290
# 104262
# 126312
# 143957
# 159727
# 174805
# 192722
#
# Disc length: 2802 seconds
#
#
# Revision: 2
# Processed by: cddbd v1.5.2PL0 Copyright (c) Steve Scherf et al.
# Submitted via: FreeRIP 2.944 
#
DISCID=a10af00c
DTITLE=Magic Piano - Magic Piano Vol. 1
DYEAR=1900
DGENRE=Instrumental
TTITLE0=Don't Cry For Me Argentina - Robert Holmes
TTITLE1=Lady Ly - Robert Holmes
TTITLE2=How Deep is Your Love - Robert Jones
TTITLE3=I Just Called To Say I Love You - Robert Holmes
TTITLE4=New York, New York - Robert Holmes
TTITLE5=Take My Breath Away - Robert Holmes
TTITLE6=Nikita - Robert Holmes
TTITLE7=Never Gonna Let You Go - Robert Holmes
TTITLE8=Let It Be - Robert Holmes
TTITLE9=The Way We Were - Robert Holmes
TTITLE10=Nothing's Gonna Change My Love For You - Robert Holmes
TTITLE11=I Write The Songs - Robert Jones Piano and Orchestra
EXTD=
EXTT0=
EXTT1=
EXTT2=
EXTT3=
EXTT4=
EXTT5=
EXTT6=
EXTT7=
EXTT8=
EXTT9=
EXTT10=
EXTT11=
PLAYORDER=
